<svg width="34" height="37" viewBox="0 0 34 37" fill="none" xmlns="http://www.w3.org/2000/svg">
<path d="M16.8905 0.487549C7.62272 0.487549 0.110413 3.37888 0.110413 6.94142V30.1754C0.110413 33.7379 7.62272 36.6292 16.8905 36.6292C26.1582 36.6292 33.6705 33.7379 33.6705 30.1754V6.94142C33.6705 3.37888 26.1582 0.487549 16.8905 0.487549ZM31.089 30.1754C30.9212 31.2983 25.7323 34.0477 16.8905 34.0477C8.04867 34.0477 2.85976 31.2983 2.69196 30.1754V25.8642C2.93721 26.0191 3.19536 26.161 3.47933 26.303C4.47323 26.8193 5.68656 27.2711 7.04187 27.6583C9.80412 28.4328 13.2118 28.8846 16.8905 28.8846C20.5692 28.8846 23.9639 28.4328 26.7262 27.6583C28.0944 27.284 29.2948 26.8206 30.3016 26.303C30.5869 26.161 30.8437 26.0191 31.089 25.8642V30.1754ZM31.089 22.4307C30.9986 23.0245 29.4755 24.0958 26.7391 24.9477C24.3382 25.7093 21.008 26.303 16.8905 26.303C12.7858 26.303 9.45562 25.6964 7.05478 24.9477C4.30543 24.0829 2.78231 23.0245 2.69196 22.4307V18.1195C2.93721 18.2731 3.19536 18.4164 3.47933 18.5584C4.47323 19.0747 5.68656 19.5265 7.04187 19.9137C9.80412 20.6882 13.2118 21.1399 16.8905 21.1399C20.5692 21.1399 23.9639 20.6882 26.7262 19.9137C28.0944 19.5394 29.2948 19.076 30.3016 18.5584C30.5869 18.4177 30.8437 18.2731 31.089 18.1195V22.4307ZM31.089 14.6861C30.9986 15.2798 29.4755 16.3512 26.7391 17.2031C24.3382 17.9646 21.008 18.5584 16.8905 18.5584C12.7858 18.5584 9.45562 17.9504 7.05478 17.2031C4.30543 16.3383 2.78231 15.2798 2.69196 14.6861V10.3749C2.93721 10.5298 3.19536 10.6718 3.47933 10.8137C4.47323 11.3301 5.68656 11.7818 7.04187 12.1691C9.80412 12.9435 13.2118 13.3953 16.8905 13.3953C20.5692 13.3953 23.9639 12.9435 26.7262 12.1691C28.0944 11.7947 29.2948 11.3301 30.3016 10.8137C30.5869 10.6718 30.8437 10.5298 31.089 10.3749V14.6861ZM26.7391 9.45843C24.3382 10.22 21.008 10.8137 16.8905 10.8137C12.7858 10.8137 9.45562 10.2071 7.05478 9.45843C4.30543 8.59361 2.78231 7.53517 2.69196 6.94142C2.85976 5.81845 8.04867 3.0691 16.8905 3.0691C25.7323 3.0691 30.9212 5.83135 31.089 6.94142C30.9986 7.53517 29.4755 8.60652 26.7391 9.45843Z" fill="#EE7828"/>
</svg>
