<svg width="36" height="34" viewBox="0 0 36 34" fill="none" xmlns="http://www.w3.org/2000/svg">
<g clip-path="url(#clip0_1351_612)">
<path d="M34.4999 16.5749C33.7284 15.6208 32.6321 14.9354 31.388 14.6293C31.9943 12.9972 32.4424 11.3184 32.7269 9.61274C32.8198 8.99272 32.7561 8.36119 32.5406 7.76786C32.3252 7.17453 31.9639 6.6356 31.4854 6.1935C31.0068 5.7514 30.4239 5.41819 29.7826 5.22011C29.1413 5.02203 28.4591 4.96449 27.7897 5.052C27.6067 5.07486 27.0636 5.14881 26.3216 5.28192C26.781 4.34 26.9987 3.31237 26.9576 2.27953C26.9515 2.10296 26.9079 1.92923 26.8293 1.76827C26.7507 1.6073 26.6386 1.46224 26.4994 1.34139C26.3603 1.22053 26.1968 1.12623 26.0182 1.06388C25.8397 1.00153 25.6497 0.972349 25.459 0.977999C25.2683 0.983649 25.0807 1.02402 24.9068 1.09681C24.733 1.1696 24.5763 1.27339 24.4458 1.40223C24.3153 1.53108 24.2134 1.68248 24.1461 1.84777C24.0788 2.01306 24.0472 2.18901 24.0533 2.36558C24.0781 3.01509 23.9342 3.66062 23.6337 4.24796C23.4237 3.72312 23.1241 3.23286 22.7464 2.79584C22.1045 2.11939 21.2897 1.60275 20.3764 1.29317C19.4632 0.983586 18.4807 0.890944 17.5188 1.02371C16.4641 1.1021 15.456 1.45961 14.6146 2.05364C13.6633 1.39104 12.5126 1.01972 11.3226 0.991445C9.81267 0.855941 8.30627 1.27995 7.13323 2.17062C6.53762 2.66161 6.05672 3.26019 5.7201 3.92958C5.38348 4.59896 5.19824 5.32501 5.17578 6.06311C5.13593 7.245 5.50757 8.40743 6.23582 9.37879C5.34988 10.0821 4.66217 10.9746 4.23208 11.9791C3.80198 12.9836 3.64244 14.0699 3.76722 15.1442C2.61881 15.7368 1.72386 16.6752 1.23096 17.8037C0.738057 18.9322 0.676871 20.1829 1.05756 21.348C2.05228 24.5528 3.90369 27.4736 6.44057 29.8402C8.87434 32.0376 12.1433 33.2612 15.5425 33.2474H20.9473C24.3461 33.2614 27.6146 32.0377 30.0477 29.8402C32.5855 27.474 34.4375 24.5531 35.4322 21.348C35.6914 20.5404 35.7421 19.6877 35.5802 18.8586C35.4183 18.0295 35.0482 17.2472 34.4999 16.5749ZM28.1933 7.71423C28.4181 7.68615 28.6468 7.70656 28.8616 7.77386C29.0763 7.84116 29.2714 7.95353 29.4316 8.10219C29.5917 8.25086 29.7125 8.43178 29.7847 8.63084C29.8568 8.8299 29.8782 9.04171 29.8473 9.24971C29.5428 11.0154 29.049 12.7485 28.3734 14.4236H24.6545L26.5321 12.6851C26.7966 12.4315 26.943 12.0918 26.9397 11.7393C26.9364 11.3868 26.7837 11.0495 26.5144 10.8002C26.2452 10.5509 25.881 10.4095 25.5002 10.4065C25.1195 10.4034 24.7527 10.5389 24.4788 10.7838L20.5479 14.4236H18.2986C18.1925 13.7164 18.2654 12.9961 18.5113 12.3194C18.7573 11.6428 19.1696 11.0282 19.7159 10.5243C20.3359 9.94485 22.713 8.37306 28.1933 7.71423ZM8.08002 6.1532C8.08875 5.78304 8.17888 5.41841 8.34491 5.08158C8.51094 4.74476 8.74938 4.44281 9.04568 4.19418C9.64479 3.78415 10.3891 3.59878 11.1295 3.67518C11.4871 3.66156 11.8438 3.71814 12.1762 3.84118C12.5085 3.96423 12.809 4.15097 13.0579 4.38914C13.2538 4.59185 13.4938 4.75399 13.762 4.86497C14.0302 4.97595 14.3208 5.03327 14.6146 5.03318V5.03318C14.9077 5.03184 15.1972 4.97345 15.4644 4.8618C15.7316 4.75016 15.9704 4.58774 16.1654 4.3851C16.382 4.17298 16.6419 4.00278 16.9301 3.88437C17.2182 3.76597 17.5289 3.70172 17.8441 3.69535C18.3241 3.61618 18.8178 3.64843 19.281 3.78922C19.7443 3.93 20.1626 4.17493 20.4986 4.50208C20.9394 5.02464 21.1695 5.67325 21.1491 6.33606C21.1491 6.42345 21.1491 6.61438 21.1491 6.61438C19.2214 7.25711 17.5747 8.46773 16.4617 10.0605C15.5447 9.05539 14.3247 8.32654 12.9577 7.96725C11.5908 7.60795 10.1392 7.63455 8.78865 8.04364C8.30676 7.51702 8.05411 6.84302 8.08002 6.1532V6.1532ZM6.6279 14.4236C6.6279 13.3538 7.08687 12.3278 7.90385 11.5713C8.72082 10.8149 9.82888 10.3899 10.9843 10.3899C12.1396 10.3899 13.2477 10.8149 14.0647 11.5713C14.8816 12.3278 15.3406 13.3538 15.3406 14.4236H6.6279ZM32.6441 20.5937C31.7765 23.3597 30.1796 25.8825 27.9973 27.935C26.1104 29.6325 23.5781 30.5748 20.9473 30.5582H15.5425C12.9109 30.5742 10.3779 29.6321 8.48952 27.935C6.3071 25.8826 4.71025 23.3597 3.84273 20.5937C3.71255 20.1867 3.6873 19.757 3.76901 19.3392C3.85072 18.9215 4.03711 18.5273 4.31322 18.1883C4.58112 17.8537 4.93015 17.5821 5.33219 17.3952C5.73424 17.2084 6.17806 17.1116 6.6279 17.1127H29.8618C30.3131 17.1103 30.7587 17.2065 31.1624 17.3934C31.566 17.5803 31.9165 17.8526 32.1852 18.1883C32.4594 18.5282 32.6437 18.9228 32.7234 19.3405C32.803 19.7583 32.7759 20.1875 32.6441 20.5937V20.5937Z" fill="#EE7828"/>
</g>
<defs>
<clipPath id="clip0_1351_612">
<rect width="34.8509" height="32.2693" fill="white" transform="translate(0.819641 0.977722)"/>
</clipPath>
</defs>
</svg>
