<svg width="40" height="38" viewBox="0 0 40 38" fill="none" xmlns="http://www.w3.org/2000/svg">
<path d="M38.2582 27.2793V5.28867C38.2582 3.10235 36.4727 1.48084 34.3046 1.66303H34.1953C30.3692 1.99098 24.5573 3.94044 21.3143 5.981L21.0045 6.18141C20.4762 6.50936 19.6017 6.50936 19.0733 6.18141L18.6178 5.90812C15.3748 3.88578 9.58105 1.95454 5.755 1.64481C3.58691 1.46262 1.81964 3.10235 1.81964 5.27045V27.2793C1.81964 29.0283 3.24074 30.668 4.98979 30.8867L5.51815 30.9595C9.47174 31.4879 15.5752 33.492 19.0733 35.4051L19.1462 35.4415C19.6381 35.7148 20.4215 35.7148 20.8952 35.4415C24.3933 33.5102 30.515 31.4879 34.4868 30.9595L35.088 30.8867C36.8371 30.668 38.2582 29.0283 38.2582 27.2793Z" stroke="#EE7828" stroke-width="2.73289" stroke-linecap="round" stroke-linejoin="round"/>
<path d="M20.0389 6.78271V34.1116" stroke="#EE7828" stroke-width="2.73289" stroke-linecap="round" stroke-linejoin="round"/>
<path d="M12.2957 12.2485H8.19641" stroke="#EE7828" stroke-width="2.73289" stroke-linecap="round" stroke-linejoin="round"/>
<path d="M13.6622 17.7143H8.19641" stroke="#EE7828" stroke-width="2.73289" stroke-linecap="round" stroke-linejoin="round"/>
</svg>
